<?xml version="1.0" standalone="no"?>
<!DOCTYPE svg PUBLIC "-//W3C//DTD SVG 20010904//EN"
 "http://www.w3.org/TR/2001/REC-SVG-20010904/DTD/svg10.dtd">
<svg version="1.0" xmlns="http://www.w3.org/2000/svg"
 width="127.000000pt" height="127.000000pt" viewBox="0 0 127.000000 127.000000"
 preserveAspectRatio="xMidYMid meet">
<metadata>
Created by potrace 1.14, written by Peter Selinger 2001-2017
</metadata>
<g transform="translate(0.000000,127.000000) scale(0.100000,-0.100000)"
fill="#000000" stroke="none">
<path d="M573 959 c-29 -19 -33 -26 -33 -66 l0 -44 40 22 c37 21 40 26 40 66
0 24 -3 43 -7 43 -5 0 -23 -10 -40 -21z"/>
<path d="M660 937 c0 -35 4 -46 23 -55 12 -7 36 -20 52 -29 17 -10 108 -62
203 -116 94 -55 172 -101 172 -103 0 -2 -9 -8 -19 -14 -16 -8 -53 9 -212 101
-105 61 -198 113 -205 116 -10 3 -12 -52 -12 -271 1 -152 3 -276 6 -276 5 0
316 176 344 195 14 9 -2 21 -101 78 -64 37 -119 67 -122 67 -8 0 -5 -127 4
-136 4 -4 7 -3 7 3 0 18 31 24 52 9 19 -13 18 -14 -12 -29 -17 -9 -47 -26 -66
-37 l-35 -22 2 146 1 146 31 -19 c18 -10 92 -53 165 -95 l134 -76 66 37 c37
20 82 46 99 58 l33 22 -300 171 c-165 95 -302 172 -305 172 -3 0 -5 -20 -5
-43z"/>
<path d="M260 779 c-124 -72 -232 -134 -240 -139 -13 -7 -12 -10 5 -16 11 -5
57 -30 103 -57 l82 -48 165 94 165 95 0 -144 0 -145 -38 23 c-67 40 -87 56
-81 62 9 10 41 10 62 1 15 -6 17 0 17 59 0 36 -3 66 -7 66 -5 -1 -29 -13 -55
-28 -25 -15 -76 -44 -112 -65 -36 -21 -66 -40 -66 -42 0 -3 49 -33 120 -73 25
-14 86 -49 137 -78 50 -30 94 -54 97 -54 3 0 6 124 6 275 0 151 -2 275 -5 275
-2 0 -95 -52 -205 -115 -174 -99 -204 -114 -222 -104 -25 13 -41 1 160 116
l152 88 0 42 c0 24 -3 43 -7 43 -5 -1 -109 -60 -233 -131z"/>
</g>
</svg>
